<svg width="24" height="24" viewBox="0 0 24 24" fill="none" xmlns="http://www.w3.org/2000/svg">
<path d="M8.5 4.2C5.043 4.2 2 5.793 2 7.759C2 9.123 3.643 10.139 3.433 11.421L3.189 15.978C3.083 17.958 3.03 18.948 3.599 19.574C4.17 20.2 5.126 20.2 7.036 20.2H9.966C11.876 20.2 12.831 20.2 13.401 19.574C13.971 18.949 13.918 17.958 13.811 15.978L13.568 11.421C13.357 10.138 15 9.123 15 7.759C15 5.793 11.957 4.2 8.5 4.2Z" stroke="white" stroke-width="1.5" stroke-linecap="round" stroke-linejoin="round"/>
<path d="M11 20.2H17.184C19.011 20.2 19.924 20.2 20.47 19.574C21.015 18.949 20.964 17.958 20.863 15.978L20.629 11.421C20.429 10.138 22 9.123 22 7.759C22 5.793 19.09 4.2 15.783 4.2H8" stroke="white" stroke-width="1.5" stroke-linecap="round" stroke-linejoin="round"/>
</svg>
