<svg width="24" height="24" viewBox="0 0 24 24" fill="none" xmlns="http://www.w3.org/2000/svg">
<path d="M5.37673 6.98289L7.14992 5.2097L8.92311 6.98289C9.48378 7.54356 9.76509 7.82487 9.91253 8.18086C10.06 8.53686 10.06 8.93457 10.06 9.72707V21.7H8.11994C6.29048 21.7 5.37673 21.7 4.8083 21.1316C4.23987 20.5631 4.23987 19.6494 4.23987 17.8199V9.72707C4.23987 8.9336 4.23987 8.53783 4.38731 8.18086C4.53475 7.82487 4.81606 7.54356 5.37673 6.98289Z" stroke="white" stroke-width="1.5" stroke-linecap="round" stroke-linejoin="round"/>
<path d="M7.1499 5.21358V4.82557C7.1499 3.63827 7.1499 3.04462 7.51851 2.67602C7.88906 2.30741 8.48271 2.30741 9.67195 2.30741H15.0594C15.7443 2.30741 16.6328 2.1978 17.0916 2.82152C17.5776 3.48501 17.1624 4.39683 17.3729 5.13016C17.4369 5.35326 17.596 5.52496 17.7415 5.69956L19.7601 8.11975M19.7601 8.11975H10.06M19.7601 8.11975V17.8199C19.7601 19.6494 19.7601 20.5631 19.1917 21.1316C18.6233 21.7 17.7095 21.7 15.8801 21.7H10.06" stroke="white" stroke-width="1.5" stroke-linecap="round" stroke-linejoin="round"/>
<path d="M10.0599 12.9698C10.5217 13.4548 11.7507 13.4316 12.4724 13.2405C12.7238 13.1708 12.9904 13.1784 13.2374 13.2623C13.4845 13.3462 13.7006 13.5025 13.8576 13.7109L14.5249 14.5859C14.9081 15.0893 15.4891 15.3279 16.0614 15.2174L16.9053 15.0554C17.369 14.9661 17.8307 15.1912 18.147 15.5947C19.1315 16.8499 19.7601 16.8499 19.7601 16.8499" stroke="white" stroke-width="1.5" stroke-linecap="round" stroke-linejoin="round"/>
</svg>
