<svg width="24" height="24" viewBox="0 0 24 24" fill="none" xmlns="http://www.w3.org/2000/svg">
<path d="M8.86226 6.01836C6.58311 6.73223 3.87624 8.58872 2.76195 10.6272C2.12492 11.5838 1.3716 13.7962 2.37771 17.226C2.56073 18.0198 2.92575 19.7388 2.70532 20.2777C3.24124 20.0553 4.95009 20.4223 5.7388 20.6073C9.14842 21.6185 11.3477 20.8611 12.2992 20.2211C14.3255 19.0997 16.1709 16.3767 16.8797 14.0834" stroke="white" stroke-width="1.5" stroke-linecap="round" stroke-linejoin="round"/>
<path d="M22.1125 4.8353C21.4583 4.38331 19.6453 3.79078 17.7636 5.27414M15.8474 4.00008C13.1577 2.55716 11.0009 2.78467 9.81686 3.27407C9.62474 3.35395 9.45183 3.47631 9.33049 3.64416C8.39012 4.94653 9.58328 6.91323 11.8948 9.73032C12.277 10.1975 12.7047 10.6292 13.1689 11.0145C15.903 13.2926 18.0275 14.6213 19.3359 13.6445C19.4785 13.5383 19.5867 13.3917 19.6615 13.2289C20.3086 11.8234 20.1893 9.50382 18.8728 7.03356C18.1849 5.74663 17.1325 4.69138 15.8474 4.00008Z" stroke="white" stroke-width="1.5" stroke-linecap="round" stroke-linejoin="round"/>
</svg>
