<svg width="24" height="24" viewBox="0 0 24 24" fill="none" xmlns="http://www.w3.org/2000/svg">
<path d="M16.0133 7.01078C16.0133 7.22254 15.9505 7.42955 15.8329 7.60562C15.7152 7.78169 15.548 7.91892 15.3524 7.99996C15.1567 8.081 14.9415 8.1022 14.7338 8.06089C14.5261 8.01958 14.3353 7.9176 14.1856 7.76787C14.0358 7.61813 13.9339 7.42735 13.8925 7.21966C13.8512 7.01197 13.8724 6.79669 13.9535 6.60105C14.0345 6.4054 14.1717 6.23819 14.3478 6.12054C14.5239 6.00289 14.7309 5.94009 14.9427 5.94009C15.2266 5.94009 15.4989 6.0529 15.6997 6.25369C15.9005 6.45448 16.0133 6.72682 16.0133 7.01078ZM20.3603 13.0459C18.6321 16.1598 15.4138 17.8425 10.792 18.0513L8.82904 22.6383C8.77388 22.7671 8.68202 22.8768 8.56493 22.9538C8.44784 23.0307 8.31069 23.0715 8.17057 23.071H8.12507C7.97798 23.0618 7.83735 23.0073 7.72249 22.915C7.60762 22.8226 7.52416 22.697 7.48355 22.5553L6.16304 17.9309L1.54125 16.6077C1.39918 16.5678 1.27297 16.4848 1.17999 16.3702C1.08701 16.2556 1.03183 16.115 1.02205 15.9678C1.01226 15.8206 1.04836 15.6739 1.12536 15.548C1.20236 15.4221 1.31649 15.3232 1.45203 15.2649L6.03902 13.3019C6.24869 8.68194 7.93145 5.46453 11.0436 3.73538C13.2519 2.50944 15.7492 2.32207 17.457 2.38096C19.1201 2.43806 20.669 2.76195 20.9242 2.9163C21.0284 2.97772 21.1153 3.0646 21.1767 3.16881C21.3275 3.42309 21.6523 4.97202 21.7121 6.63515C21.7727 8.33932 21.5863 10.8376 20.3603 13.0459ZM15.437 15.6334C14.6122 15.3189 13.894 14.7762 13.3663 14.0687C12.8386 13.3612 12.5231 12.5181 12.4569 11.6379C11.5769 11.5718 10.734 11.2565 10.0266 10.7289C9.31921 10.2014 8.77665 9.48331 8.46233 8.65874C7.84074 10.0738 7.50467 11.7866 7.45411 13.7971C7.45095 13.934 7.40847 14.0672 7.33174 14.1806C7.25501 14.294 7.14727 14.383 7.02137 14.4369L3.86374 15.7877L6.9375 16.6675C7.05412 16.7009 7.1603 16.7635 7.24601 16.8494C7.33172 16.9352 7.39412 17.0415 7.42734 17.1582L8.3053 20.2311L9.65793 17.0725C9.71195 16.9468 9.80097 16.8393 9.9144 16.7627C10.0278 16.6861 10.1609 16.6438 10.2977 16.6407C12.3064 16.5925 14.0195 16.2567 15.437 15.6334ZM19.9767 4.11725C18.7141 3.84958 14.2574 3.13579 11.0275 5.4333C10.4929 5.81473 10.0127 6.26707 9.59994 6.7779C9.56612 7.24401 9.63442 7.71189 9.80007 8.14888C9.96572 8.58587 10.2247 8.98146 10.559 9.30802C10.8933 9.63459 11.2949 9.88428 11.7356 10.0397C12.1764 10.195 12.6457 10.2524 13.1109 10.2077C13.2157 10.1976 13.3214 10.2108 13.4205 10.2464C13.5196 10.2819 13.6096 10.339 13.684 10.4134C13.7585 10.4879 13.8155 10.5779 13.8511 10.677C13.8867 10.7761 13.8999 10.8818 13.8898 10.9866C13.8452 11.4519 13.9027 11.9214 14.0583 12.3623C14.2139 12.8031 14.4638 13.2047 14.7907 13.5389C15.1175 13.8732 15.5134 14.132 15.9507 14.2975C16.3879 14.4629 16.856 14.5309 17.3222 14.4966C17.8312 14.0838 18.2814 13.6035 18.6606 13.0691C20.9581 9.84185 20.2443 5.38155 19.9767 4.11725Z" fill="white"/>
</svg>
