<svg width="24" height="24" viewBox="0 0 24 24" fill="none" xmlns="http://www.w3.org/2000/svg">
<path d="M19.4888 15C19.4888 19.1423 16.5957 21.75 12 21.75C7.4043 21.75 4.51125 19.1423 4.51125 15C4.51125 10.5548 9.87975 4.55391 11.5262 2.81813C11.5848 2.75646 11.6575 2.70695 11.7393 2.673C11.8212 2.63906 11.9102 2.62148 12.0003 2.62148C12.0903 2.62148 12.1793 2.63906 12.2612 2.673C12.343 2.70695 12.4157 2.75646 12.4743 2.81813C14.1203 4.55391 19.4888 10.5548 19.4888 15Z" stroke="white" stroke-width="1.5" stroke-miterlimit="10"/>
<path d="M16.5765 15.375C16.5765 16.2701 16.182 17.1285 15.4798 17.7615C14.7776 18.3944 13.8252 18.75 12.8321 18.75" stroke="white" stroke-width="1.5" stroke-linecap="round" stroke-linejoin="round"/>
</svg>
