<svg width="24" height="24" viewBox="0 0 24 24" fill="none" xmlns="http://www.w3.org/2000/svg">
<path d="M12 21.7C11.2065 21.7 10.448 21.3799 8.93188 20.7397C5.15761 19.145 3.26999 18.3467 3.26999 17.0052V7.15M12 21.7C12.7934 21.7 13.552 21.3799 15.0681 20.7397C18.8424 19.145 20.73 18.3467 20.73 17.0052V7.15M12 21.7V11.3744M6.17999 12L8.11999 12.97M16.85 4.24L7.14999 9.09M8.43621 9.76027L5.60284 8.38966C4.04793 7.63694 3.26999 7.26058 3.26999 6.665C3.26999 6.06942 4.04793 5.69306 5.60284 4.94034L8.43524 3.56973C10.1861 2.72292 11.0591 2.3 12 2.3C12.9409 2.3 13.8149 2.72292 15.5638 3.56973L18.3971 4.94034C19.952 5.69306 20.73 6.06942 20.73 6.665C20.73 7.26058 19.952 7.63694 18.3971 8.38966L15.5647 9.76027C13.8139 10.6071 12.9409 11.03 12 11.03C11.0591 11.03 10.1851 10.6071 8.43621 9.76027Z" stroke="white" stroke-width="1.5" stroke-linecap="round" stroke-linejoin="round"/>
</svg>
