<svg width="24" height="24" viewBox="0 0 24 24" fill="none" xmlns="http://www.w3.org/2000/svg">
<path d="M10.296 6.97944C10.0998 7.79765 9.80786 8.61772 9.2128 9.21279C8.61773 9.80785 7.79859 10.0998 6.97945 10.296C5.65038 10.6143 4.48438 11.4094 3.70268 12.5304C2.92099 13.6514 2.57799 15.0204 2.73876 16.3776C2.89954 17.7347 3.5529 18.9857 4.57488 19.893C5.59686 20.8004 6.91635 21.301 8.28301 21.3C15.4721 21.3 21.3 15.4721 21.3 8.283C21.3011 6.91635 20.8004 5.59685 19.893 4.57487C18.9857 3.55289 17.7347 2.89953 16.3776 2.73875C15.0204 2.57798 13.6514 2.92098 12.5304 3.70268C11.4094 4.48437 10.6143 5.65037 10.296 6.97944Z" stroke="white" stroke-width="1.5" stroke-linecap="round" stroke-linejoin="round"/>
<path d="M5.81073 10.719C6.05586 11.2707 6.43157 11.7543 6.90543 12.1283C7.37928 12.5022 7.93703 12.7552 8.53053 12.8654C9.12402 12.9756 9.73541 12.9396 10.3119 12.7607C10.8884 12.5818 11.4127 12.2652 11.8395 11.8383C12.2663 11.4114 12.5828 10.8871 12.7616 10.3106C12.9404 9.73403 12.9762 9.12263 12.8659 8.52916C12.7556 7.93569 12.5025 7.37798 12.1285 6.9042C11.7545 6.43041 11.2707 6.05479 10.7191 5.80977" stroke="white" stroke-width="1.5" stroke-linecap="round" stroke-linejoin="round"/>
</svg>
